<svg width="458" height="458" viewBox="0 0 458 458" fill="none" xmlns="http://www.w3.org/2000/svg">
<rect width="458" height="458" rx="52" fill="#120460"/>
<path d="M193.006 87.125L71.0974 332.139C55.4284 363.631 71.1662 401.712 104.492 412.946C135.307 423.333 168.635 406.35 178.35 375.311L260.099 114.131C265.497 96.8846 257.383 78.2938 241.068 70.5283C223.203 62.0248 201.821 69.4085 193.006 87.125Z" fill="white"/>
<path d="M385.671 334.853L316.066 206.376C301.949 180.318 263.563 183.609 254.085 211.69C252 217.868 251.738 224.516 253.331 230.839L289.026 372.537C296.94 403.955 331.224 420.683 360.85 407.582C388.766 395.237 400.213 361.694 385.671 334.853Z" fill="white"/>
</svg>
