<?xml version="1.0" encoding="UTF-8"?>
<svg version="1.1" xmlns="http://www.w3.org/2000/svg" width="183" height="182">
<path d="M0 0 C0.95722961 -0.0071553 1.91445923 -0.01431061 2.9006958 -0.02168274 C3.94436813 -0.02437164 4.98804047 -0.02706055 6.06333923 -0.02983093 C7.72020248 -0.03968773 7.72020248 -0.03968773 9.41053772 -0.04974365 C13.0694638 -0.06946789 16.7283488 -0.08113882 20.38731384 -0.09111023 C21.63866056 -0.09518576 22.89000729 -0.09926128 24.17927361 -0.10346031 C30.12252086 -0.12216961 36.06575513 -0.13673417 42.00902468 -0.14507228 C48.84613245 -0.15482507 55.68291478 -0.18109588 62.51990801 -0.22157317 C68.45937544 -0.25551679 74.39876436 -0.2672293 80.33833122 -0.27127647 C82.85519552 -0.27613516 85.37205653 -0.28772851 87.88885689 -0.30631447 C91.42123597 -0.33077394 94.95277564 -0.32972766 98.48521423 -0.32279968 C99.51471695 -0.33560974 100.54421967 -0.3484198 101.60491943 -0.36161804 C113.48968904 -0.27714687 123.68671256 4.09164144 132.38731384 12.14717102 C139.37466111 19.46102984 144.32100925 28.61737454 144.37432861 38.88204956 C144.38506157 40.30527275 144.38506157 40.30527275 144.39601135 41.75724792 C144.39870026 42.79156952 144.40138916 43.82589111 144.40415955 44.89155579 C144.41073074 45.98637772 144.41730194 47.08119965 144.42407227 48.209198 C144.44379577 51.83565847 144.45546729 55.46207749 144.46543884 59.08857727 C144.46951437 60.32889143 144.4735899 61.56920559 144.47778893 62.84710503 C144.49649803 68.73802653 144.51106261 74.62893493 144.51940089 80.51987892 C144.52915339 87.29642747 144.55542347 94.07264764 144.59590179 100.84908062 C144.62984778 106.73623591 144.6415581 112.62328236 144.64560509 118.51052666 C144.65046342 121.00506246 144.66205577 123.49959495 144.68064308 125.99406624 C144.70510569 129.49531456 144.70405571 132.99571614 144.6971283 136.49702454 C144.71634338 138.0272525 144.71634338 138.0272525 144.73594666 139.58839417 C144.65096266 151.44233627 140.25907247 161.63223171 132.22715759 170.30732727 C124.89713675 177.31011504 115.73756295 182.24140074 105.45431519 182.29434204 C104.49708557 182.30149734 103.53985596 182.30865265 102.55361938 182.31602478 C101.50994705 182.31871368 100.46627472 182.32140259 99.39097595 182.32417297 C98.28640045 182.33074417 97.18182495 182.33731537 96.04377747 182.34408569 C92.38485139 182.36380993 88.72596639 182.37548086 85.06700134 182.38545227 C83.81565462 182.3895278 82.5643079 182.39360332 81.27504158 182.39780235 C75.33179432 182.41651165 69.38856006 182.43107621 63.44529051 182.43941432 C56.60818274 182.44916711 49.77140041 182.47543792 42.93440717 182.51591522 C36.99493974 182.54985883 31.05555082 182.56157134 25.11598396 182.56561852 C22.59911967 182.5704772 20.08225866 182.58207055 17.5654583 182.60065651 C14.03307922 182.62511598 10.50153955 182.6240697 6.96910095 182.61714172 C5.93959824 182.62995178 4.91009552 182.64276184 3.84939575 182.65596008 C-8.03537385 182.57148891 -18.23239738 178.2027006 -26.93299866 170.14717102 C-33.92034592 162.8333122 -38.86669406 153.6769675 -38.92001343 143.41229248 C-38.92716873 142.46347702 -38.93432404 141.51466156 -38.94169617 140.53709412 C-38.94438507 139.50277252 -38.94707397 138.46845093 -38.94984436 137.40278625 C-38.95641556 136.30796432 -38.96298676 135.2131424 -38.96975708 134.08514404 C-38.98948058 130.45868357 -39.00115211 126.83226455 -39.01112366 123.20576477 C-39.01519918 121.96545061 -39.01927471 120.72513645 -39.02347374 119.44723701 C-39.04218284 113.55631551 -39.05674743 107.66540711 -39.06508571 101.77446312 C-39.0748382 94.99791457 -39.10110828 88.2216944 -39.1415866 81.44526142 C-39.17553259 75.55810613 -39.18724292 69.67105968 -39.1912899 63.78381538 C-39.19614824 61.28927958 -39.20774058 58.79474709 -39.2263279 56.3002758 C-39.2507905 52.79902748 -39.24974053 49.29862591 -39.24281311 45.7973175 C-39.25562317 44.77716553 -39.26843323 43.75701355 -39.28163147 42.70594788 C-39.19664748 30.85200577 -34.80475729 20.66211033 -26.77284241 11.98701477 C-19.44282156 4.984227 -10.28324777 0.0529413 0 0 Z " fill="#FEFEFE" transform="translate(38.77284240722656,-0.1471710205078125)"/>
<path d="M0 0 C3.84176119 0.62722632 5.43083788 1.64276685 8.0625 4.5 C9.18245097 8.83791037 9.02397818 11.75911412 7.66308594 15.99536133 C7.3323407 17.04697952 7.00159546 18.09859772 6.66082764 19.18208313 C6.29322327 20.30406601 5.9256189 21.42604889 5.546875 22.58203125 C5.17524231 23.75078293 4.80360962 24.91953461 4.42071533 26.123703 C3.2302608 29.8573631 2.02161212 33.58484536 0.8125 37.3125 C0.01313047 39.81016555 -0.78505982 42.30820884 -1.58203125 44.80664062 C-3.37880617 50.42717044 -5.1795501 56.04625677 -7.01452637 61.65444946 C-7.60716721 63.48157583 -8.18626351 65.31318248 -8.74816895 67.1499939 C-8.99595093 67.94442902 -9.24373291 68.73886414 -9.49902344 69.55737305 C-9.70541443 70.23873825 -9.91180542 70.92010345 -10.12445068 71.62211609 C-11.73464327 75.34114602 -14.34644215 77.71787055 -17.9375 79.5 C-22.13102419 80.41567459 -25.97024669 80.5300813 -29.83984375 78.50390625 C-34.09813701 75.16182279 -35.68787934 72.43241805 -36.36425781 67.19628906 C-36.29014103 60.57829343 -32.68218549 54.92476385 -29.734375 49.171875 C-29.09260099 47.89310328 -28.45201571 46.61373435 -27.81256104 45.33380127 C-26.47391602 42.66274343 -25.12475671 39.99737557 -23.76708984 37.3359375 C-22.03128767 33.93239982 -20.31682708 30.51866445 -18.60941696 27.100811 C-17.28952032 24.46210757 -15.96131187 21.82766244 -14.63028717 19.19455719 C-13.99529891 17.93726315 -13.36221154 16.67900713 -12.73110199 15.41976166 C-11.84665296 13.65958009 -10.95041324 11.90533817 -10.05371094 10.15136719 C-9.5474115 9.1540155 -9.04111206 8.15666382 -8.51947021 7.12908936 C-6.22880093 3.32220717 -4.48740996 0.76381446 0 0 Z " fill="#130561" transform="translate(90.9375,36.5)"/>
<path d="M0 0 C4.4426128 4.52901693 7.15382331 9.68685389 10 15.3125 C10.83227562 16.93413704 11.66560662 18.55523286 12.5 20.17578125 C12.90686035 20.97282471 13.3137207 21.76986816 13.73291016 22.59106445 C15.39779802 25.75627612 17.1955522 28.83902903 19.02099609 31.9140625 C20.7362583 35.56872591 20.93751791 39.09611683 20 43 C18.2555267 46.05924178 16.20032648 48.39983676 13 50 C11.046875 50.2734375 11.046875 50.2734375 8.75 50.375 C8.00234375 50.42398438 7.2546875 50.47296875 6.484375 50.5234375 C2.68222498 49.72235558 0.31579158 48.02710491 -2 45 C-3.6660112 41.1668438 -4.70966131 37.22919138 -5.75 33.1875 C-6.04003906 32.13240234 -6.33007812 31.07730469 -6.62890625 29.99023438 C-7.44504377 26.99959346 -8.22767558 24.00220911 -9 21 C-9.20898926 20.21544434 -9.41797852 19.43088867 -9.63330078 18.62255859 C-10.93287403 13.657701 -11.79256314 9.1065144 -11 4 C-8.22562558 -0.54997405 -5.08386693 -0.89190648 0 0 Z " fill="#150762" transform="translate(109,65)"/>
<path d="M0 0 C1.51400391 0.01740234 1.51400391 0.01740234 3.05859375 0.03515625 C4.07050781 0.04417969 5.08242188 0.05320313 6.125 0.0625 C7.29869141 0.07990234 7.29869141 0.07990234 8.49609375 0.09765625 C8.82609375 1.08765625 9.15609375 2.07765625 9.49609375 3.09765625 C9.82609375 2.10765625 10.15609375 1.11765625 10.49609375 0.09765625 C11.81609375 0.09765625 13.13609375 0.09765625 14.49609375 0.09765625 C14.82609375 1.41765625 15.15609375 2.73765625 15.49609375 4.09765625 C15.82609375 2.77765625 16.15609375 1.45765625 16.49609375 0.09765625 C20.49609375 0.09765625 24.49609375 0.09765625 28.49609375 0.09765625 C28.49609375 3.06765625 28.49609375 6.03765625 28.49609375 9.09765625 C21.97301683 9.46688702 21.97301683 9.46688702 19.55859375 7.59765625 C19.20796875 7.10265625 18.85734375 6.60765625 18.49609375 6.09765625 C18.16609375 7.08765625 17.83609375 8.07765625 17.49609375 9.09765625 C16.17609375 9.09765625 14.85609375 9.09765625 13.49609375 9.09765625 C13.16609375 7.77765625 12.83609375 6.45765625 12.49609375 5.09765625 C12.16609375 6.41765625 11.83609375 7.73765625 11.49609375 9.09765625 C10.17609375 9.09765625 8.85609375 9.09765625 7.49609375 9.09765625 C7.16609375 8.10765625 6.83609375 7.11765625 6.49609375 6.09765625 C6.16609375 7.08765625 5.83609375 8.07765625 5.49609375 9.09765625 C2.12109375 9.22265625 2.12109375 9.22265625 -1.50390625 9.09765625 C-3.50390625 7.09765625 -3.50390625 7.09765625 -3.69140625 4.03515625 C-3.44241284 0.13425947 -3.44241284 0.13425947 0 0 Z " fill="#342876" transform="translate(58.50390625,130.90234375)"/>
<path d="M0 0 C5 0 10 0 15 0 C16.06347656 -0.01160156 17.12695312 -0.02320313 18.22265625 -0.03515625 C20.12337891 -0.04869141 20.12337891 -0.04869141 22.0625 -0.0625 C23.33222656 -0.07410156 24.60195312 -0.08570313 25.91015625 -0.09765625 C29 0 29 0 30 1 C30.14115161 3.67058851 30.04247107 6.32432238 30 9 C29.01 9 28.02 9 27 9 C27 6.69 27 4.38 27 2 C26.01 2.495 26.01 2.495 25 3 C24.34227572 6.02934491 24.34227572 6.02934491 24 9 C23.01 9 22.02 9 21 9 C21 6.69 21 4.38 21 2 C20.01 2 19.02 2 18 2 C18 4.31 18 6.62 18 9 C17.01 9 16.02 9 15 9 C14.67 8.34 14.34 7.68 14 7 C13.34 7.66 12.68 8.32 12 9 C9.5 8.9375 9.5 8.9375 7 8 C5.6875 5.4375 5.6875 5.4375 5 3 C4.34 3 3.68 3 3 3 C3 4.98 3 6.96 3 9 C2.01 9 1.02 9 0 9 C0 6.03 0 3.06 0 0 Z " fill="#554B8D" transform="translate(88,131)"/>
<path d="M0 0 C2.14576637 -0.02685938 4.29162645 -0.04633088 6.4375 -0.0625 C7.63246094 -0.07410156 8.82742187 -0.08570313 10.05859375 -0.09765625 C13 0 13 0 14 1 C14.14115161 3.67058851 14.04247107 6.32432238 14 9 C13.01 9 12.02 9 11 9 C11 6.69 11 4.38 11 2 C10.01 2.495 10.01 2.495 9 3 C8.34227572 6.02934491 8.34227572 6.02934491 8 9 C7.01 9 6.02 9 5 9 C5 6.69 5 4.38 5 2 C4.01 2 3.02 2 2 2 C2 3.98 2 5.96 2 8 C1.34 8 0.68 8 0 8 C0 5.36 0 2.72 0 0 Z " fill="#332776" transform="translate(104,131)"/>
<path d="M0 0 C0.78375 0.04125 1.5675 0.0825 2.375 0.125 C3.18467438 3.03982778 3.59345993 4.58613217 2.4375 7.4375 C1.9115625 8.2728125 1.9115625 8.2728125 1.375 9.125 C-3.5 8.25 -3.5 8.25 -4.625 7.125 C-4.8125 4.6875 -4.8125 4.6875 -4.625 2.125 C-2.625 0.125 -2.625 0.125 0 0 Z " fill="#1F1268" transform="translate(123.625,130.875)"/>
<path d="M0 0 C1.67542976 0.28604898 3.34385343 0.61781233 5 1 C5 3.31 5 5.62 5 8 C3.125 8.625 3.125 8.625 1 9 C-1 7 -1 7 -1.1875 3.9375 C-1 1 -1 1 0 0 Z " fill="#5B5291" transform="translate(56,131)"/>
<path d="M0 0 C0 2.97 0 5.94 0 9 C-0.99 9 -1.98 9 -3 9 C-3.33 8.34 -3.66 7.68 -4 7 C-4.99 6.67 -5.98 6.34 -7 6 C-6.75 4.125 -6.75 4.125 -6 2 C-3.85331506 0.61504198 -2.56128588 0 0 0 Z " fill="#7269A0" transform="translate(87,131)"/>
<path d="M0 0 C1.98 0 3.96 0 6 0 C6.33 0.66 6.66 1.32 7 2 C6.01 3.485 6.01 3.485 5 5 C5 4.34 5 3.68 5 3 C4.34 3 3.68 3 3 3 C3 4.98 3 6.96 3 9 C2.01 9 1.02 9 0 9 C0 6.03 0 3.06 0 0 Z " fill="#41367F" transform="translate(88,131)"/>
<path d="M0 0 C1.67542976 0.28604898 3.34385343 0.61781233 5 1 C4.67 1.66 4.34 2.32 4 3 C3.34 3 2.68 3 2 3 C1.67 3.99 1.34 4.98 1 6 C2.32 6.33 3.64 6.66 5 7 C4.67 7.66 4.34 8.32 4 9 C0.125 8.125 0.125 8.125 -1 7 C-1.125 4 -1.125 4 -1 1 C-0.67 0.67 -0.34 0.34 0 0 Z " fill="#25186C" transform="translate(79,131)"/>
<path d="M0 0 C1.66611905 -0.042721 3.33382885 -0.04063832 5 0 C6 1 6 1 6.09765625 2.84765625 C6.06510417 4.8984375 6.03255208 6.94921875 6 9 C5.01 9 4.02 9 3 9 C3 6.69 3 4.38 3 2 C2.01 2.33 1.02 2.66 0 3 C0 2.01 0 1.02 0 0 Z " fill="#372B78" transform="translate(112,131)"/>
<path d="M0 0 C0.66 0 1.32 0 2 0 C2.625 2.8125 2.625 2.8125 3 6 C2.01 7.485 2.01 7.485 1 9 C-0.32 9 -1.64 9 -3 9 C-3 7.02 -3 5.04 -3 3 C-2.01 3.495 -2.01 3.495 -1 4 C-0.67 2.68 -0.34 1.36 0 0 Z " fill="#3E327D" transform="translate(75,131)"/>
<path d="M0 0 C1.32 0 2.64 0 4 0 C4 0.66 4 1.32 4 2 C3.01 2.495 3.01 2.495 2 3 C3.32 3.66 4.64 4.32 6 5 C5.34 5.66 4.68 6.32 4 7 C1.375 6.625 1.375 6.625 -1 6 C-0.67 4.02 -0.34 2.04 0 0 Z " fill="#4D4287" transform="translate(121,133)"/>
<path d="M0 0 C1.32 0.33 2.64 0.66 4 1 C3.34 3.31 2.68 5.62 2 8 C1.34 8 0.68 8 0 8 C0 5.36 0 2.72 0 0 Z " fill="#160863" transform="translate(104,131)"/>
</svg>
