<svg width="366" height="365" viewBox="0 0 366 365" fill="none" xmlns="http://www.w3.org/2000/svg">
<mask id="mask0_4695_2368" style="mask-type:alpha" maskUnits="userSpaceOnUse" x="0" y="0" width="366" height="365">
<rect width="366" height="364.019" rx="86.1176" fill="#D9D9D9"/>
</mask>
<g mask="url(#mask0_4695_2368)">
<rect x="1.80859" y="-0.171875" width="364.192" height="364.192" fill="white"/>
<path d="M168.103 83.0832L112.53 194.75C105.387 209.103 112.561 226.458 127.753 231.578C141.8 236.312 156.994 228.572 161.422 214.426L198.688 95.3914C201.149 87.5312 197.45 79.0583 190.013 75.5192C181.869 71.6437 172.122 75.0088 168.103 83.0832Z" fill="#120460"/>
<path d="M255.932 195.987L224.202 137.433C217.766 125.556 200.268 127.056 195.947 139.854C194.996 142.67 194.877 145.7 195.603 148.582L211.875 213.162C215.483 227.48 231.112 235.104 244.617 229.133C257.343 223.507 262.562 208.22 255.932 195.987Z" fill="#120460"/>
<path d="M108.938 270.362C108.938 268.565 109.272 266.986 109.941 265.628C110.631 264.269 111.561 263.224 112.732 262.492C113.902 261.76 115.209 261.395 116.651 261.395C117.885 261.395 118.961 261.645 119.881 262.147C120.822 262.649 121.543 263.307 122.044 264.123V261.645H127.406V279.142H122.044V276.665C121.522 277.48 120.79 278.139 119.85 278.641C118.93 279.142 117.853 279.393 116.62 279.393C115.198 279.393 113.902 279.027 112.732 278.296C111.561 277.543 110.631 276.487 109.941 275.129C109.272 273.749 108.938 272.16 108.938 270.362ZM122.044 270.394C122.044 269.056 121.668 268 120.916 267.227C120.184 266.453 119.285 266.067 118.219 266.067C117.153 266.067 116.244 266.453 115.491 267.227C114.759 267.979 114.394 269.025 114.394 270.362C114.394 271.7 114.759 272.766 115.491 273.561C116.244 274.334 117.153 274.721 118.219 274.721C119.285 274.721 120.184 274.334 120.916 273.561C121.668 272.787 122.044 271.732 122.044 270.394Z" fill="#120460"/>
<path d="M155.148 261.645L150.413 279.142H144.487L141.727 267.791L138.874 279.142H132.979L128.213 261.645H133.575L136.052 274.157L138.999 261.645H144.675L147.654 274.094L150.099 261.645H155.148Z" fill="#120460"/>
<path d="M154.872 270.362C154.872 268.565 155.207 266.986 155.876 265.628C156.565 264.269 157.496 263.224 158.666 262.492C159.837 261.76 161.143 261.395 162.586 261.395C163.819 261.395 164.896 261.645 165.816 262.147C166.756 262.649 167.477 263.307 167.979 264.123V261.645H173.341V279.142H167.979V276.665C167.457 277.48 166.725 278.139 165.784 278.641C164.864 279.142 163.788 279.393 162.555 279.393C161.133 279.393 159.837 279.027 158.666 278.296C157.496 277.543 156.565 276.487 155.876 275.129C155.207 273.749 154.872 272.16 154.872 270.362ZM167.979 270.394C167.979 269.056 167.603 268 166.85 267.227C166.119 266.453 165.22 266.067 164.154 266.067C163.088 266.067 162.178 266.453 161.426 267.227C160.694 267.979 160.328 269.025 160.328 270.362C160.328 271.7 160.694 272.766 161.426 273.561C162.178 274.334 163.088 274.721 164.154 274.721C165.22 274.721 166.119 274.334 166.85 273.561C167.603 272.787 167.979 271.732 167.979 270.394Z" fill="#120460"/>
<path d="M181.328 264.562C181.955 263.6 182.739 262.847 183.68 262.304C184.62 261.739 185.666 261.457 186.815 261.457V267.133H185.342C184.004 267.133 183 267.425 182.331 268.011C181.662 268.575 181.328 269.579 181.328 271.021V279.142H175.966V261.645H181.328V264.562Z" fill="#120460"/>
<path d="M196.088 279.393C194.374 279.393 192.827 279.027 191.448 278.296C190.089 277.564 189.012 276.519 188.218 275.16C187.445 273.801 187.058 272.212 187.058 270.394C187.058 268.596 187.455 267.018 188.249 265.659C189.044 264.279 190.131 263.224 191.51 262.492C192.89 261.76 194.437 261.395 196.151 261.395C197.865 261.395 199.412 261.76 200.792 262.492C202.172 263.224 203.259 264.279 204.053 265.659C204.847 267.018 205.245 268.596 205.245 270.394C205.245 272.192 204.837 273.78 204.022 275.16C203.227 276.519 202.13 277.564 200.729 278.296C199.35 279.027 197.803 279.393 196.088 279.393ZM196.088 274.752C197.113 274.752 197.98 274.376 198.691 273.624C199.423 272.871 199.789 271.794 199.789 270.394C199.789 268.993 199.433 267.917 198.722 267.164C198.033 266.412 197.176 266.035 196.151 266.035C195.106 266.035 194.238 266.412 193.549 267.164C192.859 267.896 192.514 268.972 192.514 270.394C192.514 271.794 192.848 272.871 193.517 273.624C194.207 274.376 195.064 274.752 196.088 274.752Z" fill="#120460"/>
<path d="M229.161 261.457C231.335 261.457 233.059 262.116 234.334 263.433C235.631 264.75 236.279 266.579 236.279 268.92V279.142H230.948V269.641C230.948 268.512 230.645 267.645 230.039 267.039C229.453 266.412 228.638 266.098 227.593 266.098C226.548 266.098 225.722 266.412 225.116 267.039C224.53 267.645 224.238 268.512 224.238 269.641V279.142H218.907V269.641C218.907 268.512 218.604 267.645 217.998 267.039C217.412 266.412 216.597 266.098 215.552 266.098C214.507 266.098 213.681 266.412 213.075 267.039C212.49 267.645 212.197 268.512 212.197 269.641V279.142H206.835V261.645H212.197V263.84C212.74 263.109 213.451 262.534 214.329 262.116C215.207 261.677 216.2 261.457 217.308 261.457C218.625 261.457 219.796 261.739 220.82 262.304C221.865 262.868 222.68 263.673 223.266 264.718C223.872 263.757 224.698 262.973 225.743 262.367C226.788 261.76 227.927 261.457 229.161 261.457Z" fill="#120460"/>
<path d="M255.268 270.112C255.268 270.613 255.236 271.136 255.174 271.679H243.039C243.122 272.766 243.467 273.603 244.074 274.188C244.701 274.752 245.464 275.035 246.363 275.035C247.701 275.035 248.631 274.47 249.153 273.341H254.86C254.568 274.491 254.035 275.526 253.261 276.446C252.508 277.365 251.557 278.087 250.408 278.609C249.258 279.132 247.972 279.393 246.551 279.393C244.837 279.393 243.311 279.027 241.973 278.296C240.635 277.564 239.59 276.519 238.837 275.16C238.085 273.801 237.708 272.212 237.708 270.394C237.708 268.575 238.074 266.986 238.806 265.628C239.558 264.269 240.604 263.224 241.941 262.492C243.279 261.76 244.816 261.395 246.551 261.395C248.244 261.395 249.749 261.75 251.066 262.461C252.383 263.171 253.407 264.185 254.139 265.502C254.892 266.819 255.268 268.356 255.268 270.112ZM249.78 268.701C249.78 267.781 249.467 267.049 248.84 266.506C248.213 265.962 247.429 265.69 246.488 265.69C245.589 265.69 244.826 265.952 244.199 266.474C243.593 266.997 243.217 267.739 243.07 268.701H249.78Z" fill="#120460"/>
</g>
</svg>
